<?xml version="1.0" encoding="UTF-8" standalone="no"?>
<!-- Created with Inkscape (http://www.inkscape.org/) -->

<svg
   width="349.99802"
   height="350"
   viewBox="0 0 92.603642 92.604167"
   version="1.1"
   id="svg1"
   sodipodi:docname="sublime_mark_primary.svg"
   inkscape:version="1.3 (0e150ed6c4, 2023-07-21)"
   xmlns:inkscape="http://www.inkscape.org/namespaces/inkscape"
   xmlns:sodipodi="http://sodipodi.sourceforge.net/DTD/sodipodi-0.dtd"
   xmlns="http://www.w3.org/2000/svg"
   xmlns:svg="http://www.w3.org/2000/svg">
  <sodipodi:namedview
     id="namedview1"
     pagecolor="#505050"
     bordercolor="#eeeeee"
     borderopacity="1"
     inkscape:showpageshadow="0"
     inkscape:pageopacity="0"
     inkscape:pagecheckerboard="0"
     inkscape:deskcolor="#d1d1d1"
     inkscape:zoom="1.0985714"
     inkscape:cx="152.47074"
     inkscape:cy="216.18986"
     inkscape:window-width="1920"
     inkscape:window-height="1020"
     inkscape:window-x="0"
     inkscape:window-y="32"
     inkscape:window-maximized="1"
     inkscape:current-layer="svg1" />
  <defs
     id="defs1" />
  <path
     id="path61-2-2-7-8-06-1-9-6-5-1-8-3"
     style="fill:#20bf6b;fill-opacity:1;stroke:none;stroke-width:4.54388;stroke-dasharray:none;stroke-opacity:1;paint-order:stroke markers fill"
     d="M 92.6036,0 0.0044,0.0044 v 92.599803 l 14.776,-14.708842 14.7128,14.708842 h 14.1205 l -1.3971,-1.39733 -6.7957,-6.79576 0.8364,-0.83996 7.058,-7.058252 11.1815,-11.181899 5.4529,-5.452708 32.6539,32.654129 z M 46.304,18.560381 c 1.4025,0.866204 2.1641,4.532258 5.055,8.654162 2.3623,3.367695 4.7995,5.653947 9.9336,6.614646 8.7307,1.637037 9.4453,1.812903 10.3767,2.337875 -0.9314,0.524972 -1.646,0.699962 -10.3767,2.3335 -5.1341,0.960698 -7.5713,3.246951 -9.9336,6.614646 -2.8909,4.121904 -3.6525,7.787958 -5.055,8.654161 -1.4026,-0.866203 -2.1641,-4.532257 -5.055,-8.654161 -2.3623,-3.367695 -4.7995,-5.653948 -9.9336,-6.614646 -8.7307,-1.633538 -9.4453,-1.808528 -10.3767,-2.3335 0.9314,-0.524972 1.646,-0.699963 10.3767,-2.332625 5.1341,-0.960699 7.5713,-3.247827 9.9336,-6.615521 2.8909,-4.121905 3.6524,-7.787083 5.055,-8.653287 z" />
</svg>
