<?xml version="1.0" encoding="UTF-8" standalone="no"?>
<!-- Created with Inkscape (http://www.inkscape.org/) -->

<svg
   width="1973.6227"
   height="350"
   viewBox="0 0 522.18767 92.604167"
   version="1.1"
   id="svg1"
   xmlns="http://www.w3.org/2000/svg"
   xmlns:svg="http://www.w3.org/2000/svg">
  <defs
     id="defs1" />
  <g
     id="layer1"
     transform="translate(-579.01836,-19.843707)">
    <g
       id="g2"
       transform="translate(558.64605,-3.1466732e-5)">
      <path
         id="path61-2-2-7-3-4-9-7"
         style="fill:#20bf6b;fill-opacity:1;stroke:none;stroke-width:4.54409;stroke-dasharray:none;stroke-opacity:1;paint-order:stroke markers fill"
         d="M 20.372226,19.843738 V 112.4479 l 9.852701,-9.80781 a 6.9623571,6.9623571 0 0 1 9.834587,0.009 l 9.803001,9.79819 H 65.65214 L 43.04832,89.83892 61.831301,71.056289 a 6.9452557,6.9452557 0 0 1 9.821026,0 L 112.97578,112.37965 V 19.843738 Z m 46.148083,9.446441 c 1.20618,0 2.123262,4.810719 5.661127,8.310697 2.349273,2.323985 5.680201,3.853476 9.332691,4.503597 8.745482,1.554865 13.058505,1.955612 13.058505,2.332735 0,0.376247 -4.313023,0.769995 -13.058505,2.32836 -3.65249,0.647496 -6.983418,2.180486 -9.332691,4.503596 -3.537953,3.499978 -4.454947,8.310698 -5.661127,8.310698 -1.20373,0 -2.118799,-4.81072 -5.656664,-8.310698 -2.349273,-2.32311 -5.680201,-3.853475 -9.332691,-4.503596 -8.745482,-1.554865 -13.063055,-1.951238 -13.063055,-2.32836 0,-0.376248 4.317573,-0.778745 13.063055,-2.332735 3.65249,-0.647496 6.983418,-2.180487 9.332691,-4.503597 3.537953,-3.499978 4.452934,-8.310697 5.656664,-8.310697 z" />
      <path
         id="path57-1-5-81-6-7-4-1-6-8-1-8-4-3-8-9-2-9-8-2"
         style="font-weight:bold;font-size:15.386px;line-height:1.25;font-family:Montserrat;-inkscape-font-specification:'Montserrat Bold';fill:#f0ebe5;fill-opacity:1;stroke:none;stroke-width:1.65471;stroke-dasharray:none;stroke-opacity:1"
         d="m 283.91476,32.929728 v 71.398742 h 14.33762 v -5.992917 c 1.29599,1.565123 2.79971,2.862187 4.52273,3.875737 3.27163,1.92448 7.1847,2.88664 11.73933,2.88664 4.87534,0 9.23757,-1.09057 13.08654,-3.27163 3.91314,-2.245237 6.99193,-5.356025 9.23716,-9.333284 2.30936,-3.977302 3.46439,-8.660215 3.46439,-14.048755 0,-5.452706 -1.15503,-10.168129 -3.46439,-14.145389 -2.24523,-3.97726 -5.32402,-7.056055 -9.23716,-9.237162 -3.84897,-2.181066 -8.2112,-3.271635 -13.08654,-3.271635 -4.36217,0 -8.17934,0.962161 -11.45098,2.886645 -1.53702,0.90414 -2.9122,2.036056 -4.13773,3.379122 V 32.929728 Z m 63.2349,0 v 71.398742 h 15.01097 V 32.929728 Z M 189.42595,35.81689 c -6.35082,0 -11.64322,0.962161 -15.87706,2.886645 -4.16972,1.860361 -7.31298,4.394646 -9.42992,7.60212 -2.05278,3.143308 -3.0794,6.639279 -3.0794,10.488249 0,3.592387 0.70591,6.543333 2.11719,8.852689 1.47544,2.309399 3.36781,4.169774 5.67717,5.581055 2.3094,1.41128 4.84317,2.565753 7.6016,3.463871 2.82257,0.898076 5.61315,1.667924 8.37158,2.30942 2.82256,0.577328 5.38884,1.218769 7.69824,1.92443 2.3094,0.641495 4.16977,1.507758 5.58106,2.598291 1.41128,1.026409 2.11666,2.437656 2.11666,4.23385 0,1.411281 -0.44912,2.66221 -1.3472,3.752742 -0.89812,1.090533 -2.30937,1.95628 -4.23385,2.597775 -1.86032,0.57737 -4.33018,0.866097 -7.40937,0.866097 -4.04142,0 -8.05042,-0.641441 -12.02769,-1.924431 -3.91313,-1.347156 -7.31317,-3.047171 -10.19989,-5.099947 l -5.2927,11.739335 c 3.01506,2.309396 6.99258,4.201769 11.93209,5.677169 4.9395,1.41133 10.10354,2.11719 15.49207,2.11719 6.41496,0 11.70736,-0.96216 15.87707,-2.88665 4.23388,-1.92448 7.4091,-4.458768 9.52603,-7.602118 2.11695,-3.143308 3.17552,-6.607285 3.17552,-10.39213 0,-3.528222 -0.73786,-6.446698 -2.2133,-8.756055 -1.41129,-2.309398 -3.27166,-4.169774 -5.58106,-5.581054 -2.30939,-1.411281 -4.87516,-2.534318 -7.69772,-3.36827 -2.75843,-0.833952 -5.54901,-1.57129 -8.37158,-2.212785 -2.75843,-0.641495 -5.2922,-1.282936 -7.6016,-1.92443 -2.30935,-0.641496 -4.16977,-1.475807 -5.58106,-2.502173 -1.41131,-1.090575 -2.11718,-2.501822 -2.11718,-4.23385 0,-1.475447 0.41713,-2.758328 1.25109,-3.848861 0.83395,-1.154699 2.21324,-2.084908 4.13773,-2.790527 1.92448,-0.705661 4.39435,-1.058333 7.40937,-1.058333 3.01501,0 6.09432,0.449086 9.23767,1.347204 3.14331,0.83391 6.28657,2.148785 9.42992,3.944979 l 4.81108,-11.835453 c -3.14335,-1.988609 -6.76769,-3.464361 -10.87324,-4.426603 -4.1056,-1.026409 -8.27548,-1.539441 -12.50932,-1.539441 z m 235.25747,15.973185 c -4.23384,0 -8.01854,0.930209 -11.35434,2.790527 -1.88292,1.033772 -3.51351,2.363846 -4.90771,3.971334 v -5.992399 h -14.33711 v 51.768933 h 15.01097 V 78.347627 c 0,-3.079142 0.48108,-5.612953 1.44332,-7.601604 0.96225,-1.988651 2.30907,-3.463844 4.0411,-4.426086 1.73203,-1.026367 3.68882,-1.539958 5.86992,-1.539958 3.14332,0 5.54871,0.994672 7.21662,2.983281 1.73202,1.988651 2.59829,5.067445 2.59829,9.237162 v 27.328048 h 15.01097 V 78.347627 c 0,-3.079142 0.48108,-5.612953 1.44332,-7.601604 0.96224,-1.988651 2.30958,-3.463844 4.04162,-4.426086 1.73202,-1.026367 3.68834,-1.539958 5.8694,-1.539958 3.14336,0 5.58122,0.994672 7.31325,2.983281 1.73203,1.988651 2.59778,5.067445 2.59778,9.237162 v 27.328048 h 15.01097 V 74.691519 c 0,-5.260291 -0.93017,-9.558539 -2.79053,-12.894303 -1.79615,-3.399931 -4.29749,-5.901748 -7.50497,-7.505485 -3.14335,-1.667862 -6.7682,-2.501656 -10.87375,-2.501656 -4.9395,0 -9.33369,1.186467 -13.18266,3.559989 -2.16199,1.355814 -3.97727,2.993196 -5.46943,4.893242 -1.21304,-1.948089 -2.75158,-3.553489 -4.63383,-4.797124 -3.52822,-2.437688 -7.66611,-3.656107 -12.4132,-3.656107 z m 90.93347,0 c -5.26025,0 -9.97516,1.154515 -14.14487,3.463871 -4.16972,2.245232 -7.47333,5.388489 -9.91102,9.429915 -2.37352,3.97726 -3.56051,8.564275 -3.56051,13.7604 0,5.131959 1.21894,9.718458 3.65662,13.759884 2.43765,3.97726 5.86968,7.120519 10.29602,9.429915 4.49033,2.30929 9.68718,3.4638 15.58871,3.46387 4.6827,-5e-5 8.82046,-0.70544 12.41268,-2.11667 3.59238,-1.47544 6.57528,-3.560121 8.9488,-6.254394 l -7.98659,-8.660453 c -1.73203,1.667904 -3.65687,2.918833 -5.77381,3.752742 -2.05277,0.833952 -4.45817,1.251087 -7.21661,1.251087 -3.07914,0 -5.77331,-0.545543 -8.08271,-1.636076 -2.24524,-1.154699 -4.00971,-2.790252 -5.2927,-4.907194 -0.66321,-1.186794 -1.13944,-2.472131 -1.44177,-3.848861 h 39.16195 c 0.0642,-0.641494 0.12855,-1.315445 0.19275,-2.021065 0.0642,-0.769786 0.0961,-1.443178 0.0961,-2.020548 0,-5.580997 -1.18698,-10.360366 -3.56051,-14.337626 -2.37352,-4.041426 -5.61268,-7.120221 -9.71827,-9.237162 -4.04143,-2.181066 -8.59649,-3.271635 -13.66428,-3.271635 z m -292.60022,0.769462 v 29.252477 c 0,5.324417 0.93017,9.718602 2.79053,13.182658 1.86031,3.399932 4.45807,5.933698 7.79383,7.601608 3.39993,1.66785 7.24909,2.50165 11.5471,2.50165 3.97731,0 7.6336,-0.8977 10.96936,-2.69389 1.98794,-1.08773 3.68222,-2.480591 5.09995,-4.160471 v 6.084901 h 14.2415 V 52.559537 H 260.44797 V 78.15539 c 0,3.14335 -0.51354,5.773575 -1.53995,7.890475 -1.02637,2.052816 -2.43766,3.592472 -4.23385,4.618839 -1.7962,0.962242 -3.84889,1.443323 -6.15828,1.443323 -3.33577,0 -5.93353,-0.994671 -7.79384,-2.983281 -1.79619,-2.052816 -2.69441,-5.228025 -2.69441,-9.526033 V 52.559537 Z m 147.60029,0 v 51.768933 h 15.01097 V 52.559537 Z M 515.71301,63.14442 c 2.56598,0 4.81154,0.577537 6.73602,1.732194 1.92449,1.090575 3.43167,2.629714 4.52221,4.618323 0.72335,1.31908 1.20184,2.797071 1.44539,4.426603 h -25.48424 c 0.24974,-1.602664 0.72297,-3.047486 1.42627,-4.329968 1.09054,-2.052775 2.59824,-3.624383 4.52272,-4.714958 1.98866,-1.154657 4.26565,-1.732194 6.83163,-1.732194 z m -203.79686,0.962216 c 2.50186,0 4.7149,0.577536 6.63939,1.732194 1.9886,1.154698 3.56026,2.790252 4.71496,4.907193 1.21886,2.116942 1.82831,4.683221 1.82831,7.698238 0,2.950894 -0.60945,5.516656 -1.82831,7.697722 -1.1547,2.116941 -2.72636,3.753011 -4.71496,4.90771 -1.92449,1.154657 -4.13753,1.731678 -6.63939,1.731678 -2.50181,0 -4.74686,-0.577021 -6.73551,-1.731678 -1.98861,-1.154699 -3.56026,-2.790769 -4.71495,-4.90771 -1.1547,-2.181066 -1.7322,-4.746828 -1.7322,-7.697722 0,-3.015017 0.5775,-5.581296 1.7322,-7.698238 1.15469,-2.116941 2.72634,-3.752495 4.71495,-4.907193 1.98865,-1.154658 4.2337,-1.732194 6.73551,-1.732194 z" />
      <path
         id="path14630-84-3-5-5-3-1-3-7-7-2-9-2-9-2-1-3-9-5-3-9-4-8-18-3-1-4-5-2"
         style="color:#000000;fill:#20bf6b;fill-opacity:1;stroke:none;stroke-width:3.49183;stroke-dasharray:none;stroke-opacity:1"
         d="m 376.42682,26.808766 v 0.02625 c -1.2984,4.079486 -4.70826,7.262804 -8.46575,8.450171 v 3.391391 c 3.75592,1.187805 7.167,4.368672 8.46575,8.449822 v 0.02625 h 0.005 3.38325 0.005 V 47.1264 c 1.2984,-4.079487 4.70817,-7.262367 8.46575,-8.449822 v -3.391391 c -3.75601,-1.187805 -7.167,-4.368672 -8.46575,-8.450171 v -0.02625 h -0.005 -3.38325 z" />
    </g>
  </g>
</svg>
