<?xml version="1.0" encoding="UTF-8" standalone="no"?>
<!-- Created with Inkscape (http://www.inkscape.org/) -->

<svg
   width="350"
   height="350.00101"
   viewBox="0 0 92.604167 92.604433"
   version="1.1"
   id="svg1"
   inkscape:version="1.3 (0e150ed6c4, 2023-07-21)"
   sodipodi:docname="sublime_logo.svg"
   xmlns:inkscape="http://www.inkscape.org/namespaces/inkscape"
   xmlns:sodipodi="http://sodipodi.sourceforge.net/DTD/sodipodi-0.dtd"
   xmlns="http://www.w3.org/2000/svg"
   xmlns:svg="http://www.w3.org/2000/svg">
  <sodipodi:namedview
     id="namedview1"
     pagecolor="#585858"
     bordercolor="#676767"
     borderopacity="1"
     inkscape:showpageshadow="0"
     inkscape:pageopacity="0"
     inkscape:pagecheckerboard="0"
     inkscape:deskcolor="#464646"
     inkscape:document-units="px"
     inkscape:zoom="0.059768919"
     inkscape:cx="2442.7412"
     inkscape:cy="1631.2827"
     inkscape:window-width="1920"
     inkscape:window-height="1020"
     inkscape:window-x="0"
     inkscape:window-y="32"
     inkscape:window-maximized="1"
     inkscape:current-layer="layer1">
    <inkscape:page
       x="-2.3704542e-06"
       y="1.760989e-08"
       width="92.604164"
       height="92.604431"
       id="page11"
       margin="0"
       bleed="0" />
  </sodipodi:namedview>
  <defs
     id="defs1">
    <inkscape:path-effect
       effect="fillet_chamfer"
       id="path-effect115-5-1-4-3"
       is_visible="true"
       lpeversion="1"
       nodesatellites_param="F,0,0,1,0,0,0,1 @ F,0,0,1,0,0,0,1 @ F,0,0,1,0,0,0,1 @ F,0,0,1,0,0,0,1 @ F,0,0,1,0,0,0,1 @ F,0,0,1,0,0.52916667,0,1 @ F,0,0,1,0,0,0,1 @ F,0,0,1,0,0,0,1 @ F,0,0,1,0,0,0,1 @ F,0,0,1,0,0,0,1 @ F,0,0,1,0,0,0,1 @ F,0,0,1,0,0,0,1 @ F,0,0,1,0,0,0,1 @ F,0,1,1,0,0,0,1 @ F,0,1,1,0,0,0,1 @ F,0,1,1,0,0,0,1 @ F,0,0,1,0,0,0,1 @ F,0,0,1,0,0,0,1 @ F,0,0,1,0,0,0,1 @ F,0,0,1,0,0,0,1 @ F,0,0,1,0,0,0,1 @ F,0,0,1,0,0,0,1 @ F,0,0,1,0,0,0,1 @ F,0,0,1,0,0,0,1 @ F,0,0,1,0,0.52916667,0,1 @ F,0,0,1,0,0,0,1 @ F,0,0,1,0,0,0,1 @ F,0,0,1,0,0,0,1 @ F,0,0,1,0,0,0,1 @ F,0,0,1,0,0,0,1 | F,0,0,1,0,0,0,1 @ F,0,0,1,0,0,0,1 @ F,0,0,1,0,0,0,1 @ F,0,0,1,0,0,0,1 @ F,0,0,1,0,0,0,1 @ F,0,0,1,0,0,0,1 @ F,0,0,1,0,0,0,1 @ F,0,0,1,0,0,0,1 @ F,0,0,1,0,0,0,1 @ F,0,0,1,0,0,0,1 @ F,0,0,1,0,0,0,1 @ F,0,0,1,0,0,0,1 @ F,0,0,1,0,0,0,1 @ F,0,0,1,0,0,0,1 @ F,0,0,1,0,0,0,1 @ F,0,0,1,0,0,0,1 @ F,0,0,1,0,0,0,1 @ F,0,0,1,0,0,0,1 @ F,0,0,1,0,0,0,1 @ F,0,0,1,0,0,0,1 @ F,0,0,1,0,0,0,1 @ F,0,0,1,0,0,0,1 @ F,0,0,1,0,0,0,1 @ F,0,0,1,0,0,0,1 @ F,0,0,1,0,0,0,1 @ F,0,0,1,0,0,0,1 @ F,0,0,1,0,0,0,1 @ F,0,0,1,0,0,0,1 @ F,0,0,1,0,0,0,1 @ F,0,0,1,0,0,0,1 @ F,0,0,1,0,0,0,1 @ F,0,0,1,0,0,0,1 @ F,0,0,1,0,0,0,1 @ F,0,0,1,0,0,0,1 @ F,0,0,1,0,0,0,1 @ F,0,0,1,0,0,0,1 @ F,0,0,1,0,0,0,1 @ F,0,0,1,0,0,0,1 @ F,0,0,1,0,0,0,1 @ F,0,0,1,0,0,0,1 @ F,0,0,1,0,0,0,1 @ F,0,0,1,0,0,0,1 @ F,0,0,1,0,0,0,1 @ F,0,0,1,0,0,0,1 @ F,0,0,1,0,0,0,1 @ F,0,0,1,0,0,0,1 @ F,0,0,1,0,0,0,1 @ F,0,0,1,0,0,0,1 @ F,0,0,1,0,0,0,1 @ F,0,0,1,0,0,0,1 @ F,0,0,1,0,0,0,1 @ F,0,0,1,0,0,0,1 @ F,0,0,1,0,0,0,1 @ F,0,0,1,0,0,0,1 @ F,0,0,1,0,0,0,1 @ F,0,0,1,0,0,0,1 @ F,0,0,1,0,0,0,1 @ F,0,0,1,0,0,0,1 @ F,0,0,1,0,0,0,1 @ F,0,0,1,0,0,0,1 @ F,0,0,1,0,0,0,1 @ F,0,0,1,0,0,0,1 @ F,0,0,1,0,0,0,1 @ F,0,0,1,0,0,0,1 @ F,0,0,1,0,0,0,1 @ F,0,0,1,0,0,0,1 @ F,0,0,1,0,0,0,1 @ F,0,0,1,0,0,0,1 @ F,0,0,1,0,0,0,1 @ F,0,0,1,0,0,0,1 @ F,0,0,1,0,0,0,1 @ F,0,0,1,0,0,0,1 @ F,0,0,1,0,0,0,1 @ F,0,0,1,0,0,0,1 @ F,0,0,1,0,0,0,1 @ F,0,0,1,0,0,0,1 @ F,0,0,1,0,0,0,1 @ F,0,0,1,0,0,0,1 @ F,0,0,1,0,0,0,1 @ F,0,0,1,0,0,0,1 @ F,0,0,1,0,0,0,1 @ F,0,0,1,0,0,0,1 @ F,0,0,1,0,0,0,1 @ F,0,0,1,0,0,0,1"
       radius="0"
       unit="px"
       method="auto"
       mode="F"
       chamfer_steps="1"
       flexible="false"
       use_knot_distance="true"
       apply_no_radius="true"
       apply_with_radius="true"
       only_selected="true"
       hide_knots="false" />
  </defs>
  <g
     inkscape:label="Camada 1"
     inkscape:groupmode="layer"
     id="layer1"
     transform="translate(-2900.269,-19.843588)">
    <path
       id="path115-7-4-7"
       style="fill:#ffffff;fill-opacity:1;stroke:none;stroke-width:0.132292;stroke-opacity:1;paint-order:stroke markers fill"
       d="m 417.8849,874.17417 c -1.92366,0.006 -3.76253,0.7925 -5.09633,2.17868 -0.0603,0.0582 -0.11957,0.11746 -0.17777,0.17776 -1.17569,1.30248 -1.82787,2.99393 -1.8309,4.74855 0.003,1.75462 0.65521,3.44607 1.8309,4.74855 0.0258,0.0283 0.0519,0.0564 0.0782,0.0842 0.20049,0.21254 0.54501,0.20391 0.75214,-0.002 l 0.29572,-0.29435 c 0.0739,-0.0735 0.1615,-0.13182 0.25786,-0.17157 0.0965,-0.0399 0.19993,-0.0605 0.30438,-0.0605 0.10431,2.2e-4 0.20755,0.0209 0.30386,0.061 0.0964,0.0399 0.18402,0.0984 0.25786,0.17208 l 0.0971,0.0971 1.0232,1.02268 1.41335,1.41335 c 0.16302,0.0173 0.32658,0.0291 0.49041,0.0351 0.41267,-0.004 0.82419,-0.0443 1.2299,-0.11989 l -1.32912,-1.3286 -1.96577,-1.96629 -0.61754,-0.61753 2.14664,-2.14664 c 0.0737,-0.0737 0.1611,-0.13217 0.25735,-0.17208 0.0963,-0.0399 0.19958,-0.0605 0.30386,-0.0605 0.10427,10e-6 0.20752,0.0206 0.30385,0.0605 0.0962,0.0399 0.18369,0.0984 0.25735,0.17208 l 3.88086,3.88086 c 0.20666,0.20666 0.5509,0.21579 0.75155,0.003 0.0304,-0.0322 0.0605,-0.0647 0.0903,-0.0974 1.15507,-1.29857 1.79413,-2.97546 1.79628,-4.71341 -6.3e-4,-1.74009 -0.63979,-3.41944 -1.79628,-4.71961 -0.0625,-0.0702 -0.12645,-0.13907 -0.19172,-0.2067 -1.3389,-1.39147 -3.18649,-2.17804 -5.11751,-2.17868 z m 0,3.2582 c 0.009,0 0.0169,0.002 0.0253,0.006 0.008,0.004 0.0169,0.0102 0.0253,0.0181 0.0168,0.0158 0.0339,0.0388 0.0517,0.0677 0.0355,0.0578 0.0745,0.13933 0.12143,0.23306 0.0235,0.0469 0.0487,0.0966 0.077,0.14831 0.0283,0.0517 0.0596,0.10527 0.094,0.15917 0.0344,0.0539 0.0719,0.10843 0.11369,0.16174 0.0418,0.0533 0.0879,0.10555 0.13849,0.15555 0.0336,0.0332 0.069,0.0647 0.10594,0.0951 0.0369,0.0303 0.0753,0.0594 0.11524,0.0868 0.04,0.0275 0.0813,0.0535 0.12402,0.078 0.0428,0.0245 0.0871,0.0477 0.1323,0.0693 0.0452,0.0215 0.0916,0.0414 0.139,0.0599 0.0474,0.0185 0.0959,0.0357 0.14522,0.0512 0.0493,0.0155 0.0995,0.0294 0.15037,0.0419 0.0509,0.0124 0.10234,0.0233 0.15452,0.0326 0.24987,0.0444 0.46797,0.0806 0.65474,0.11058 0.18676,0.03 0.34204,0.0539 0.46612,0.0734 0.12408,0.0195 0.21722,0.0349 0.27905,0.0481 0.0309,0.007 0.0538,0.0124 0.0693,0.0181 0.0154,0.006 0.0232,0.0112 0.0232,0.0165 0,0.005 -0.008,0.0108 -0.0232,0.0165 -0.0154,0.006 -0.0383,0.0115 -0.0693,0.0181 -0.0618,0.0131 -0.15497,0.0286 -0.27905,0.0481 -0.12408,0.0195 -0.27936,0.043 -0.46612,0.0729 -0.18677,0.0299 -0.40487,0.0662 -0.65474,0.11059 -0.0522,0.009 -0.10363,0.0201 -0.15452,0.0326 -0.0509,0.0124 -0.10108,0.0264 -0.15037,0.0418 -0.0493,0.0155 -0.0978,0.0326 -0.14522,0.0512 -0.0474,0.0185 -0.0938,0.0384 -0.139,0.0599 -0.0452,0.0215 -0.0895,0.0447 -0.1323,0.0692 -0.0427,0.0245 -0.084,0.0506 -0.12402,0.078 -0.04,0.0274 -0.0783,0.0565 -0.11524,0.0868 -0.0369,0.0303 -0.0724,0.0619 -0.10594,0.0951 -0.0505,0.05 -0.0967,0.10223 -0.13849,0.15554 -0.0418,0.0533 -0.0793,0.10785 -0.11369,0.16175 -0.0344,0.0539 -0.0657,0.10742 -0.094,0.15916 -0.0283,0.0518 -0.0535,0.10145 -0.077,0.14832 -0.047,0.0937 -0.0859,0.17526 -0.12143,0.23306 -0.0178,0.0289 -0.0348,0.0519 -0.0517,0.0677 -0.008,0.008 -0.0169,0.014 -0.0253,0.0181 -0.008,0.004 -0.0167,0.006 -0.0253,0.006 -0.009,0 -0.0169,-0.002 -0.0253,-0.006 -0.008,-0.004 -0.0169,-0.0102 -0.0253,-0.0181 -0.0168,-0.0158 -0.0339,-0.0388 -0.0517,-0.0677 -0.0355,-0.0578 -0.074,-0.13934 -0.12093,-0.23306 -0.0235,-0.0469 -0.0492,-0.0966 -0.0775,-0.14832 -0.0283,-0.0517 -0.0591,-0.10526 -0.0935,-0.15916 -0.0344,-0.0539 -0.0724,-0.10844 -0.1142,-0.16175 -0.0418,-0.0533 -0.0874,-0.10555 -0.13798,-0.15554 -0.0336,-0.0332 -0.069,-0.0647 -0.10593,-0.0951 -0.0369,-0.0303 -0.0753,-0.0594 -0.11524,-0.0868 -0.04,-0.0275 -0.0813,-0.0535 -0.12402,-0.078 -0.0428,-0.0245 -0.0871,-0.0477 -0.1323,-0.0692 -0.0452,-0.0216 -0.0916,-0.0414 -0.13901,-0.0599 -0.0474,-0.0185 -0.0959,-0.0357 -0.14521,-0.0512 -0.0493,-0.0155 -0.0995,-0.0294 -0.15038,-0.0418 -0.0509,-0.0124 -0.10233,-0.0233 -0.15451,-0.0326 -0.24987,-0.0444 -0.46793,-0.0807 -0.65474,-0.11059 -0.18681,-0.0299 -0.34249,-0.0534 -0.46664,-0.0729 -0.12414,-0.0195 -0.21717,-0.035 -0.27905,-0.0481 -0.0309,-0.007 -0.0538,-0.0124 -0.0693,-0.0181 -0.0154,-0.006 -0.0232,-0.0112 -0.0232,-0.0165 0,-0.005 0.008,-0.0108 0.0232,-0.0165 0.0154,-0.006 0.0383,-0.0115 0.0693,-0.0181 0.0619,-0.0131 0.15491,-0.0285 0.27905,-0.0481 0.12415,-0.0195 0.27983,-0.0434 0.46664,-0.0734 0.18681,-0.03 0.40487,-0.0661 0.65474,-0.11058 0.0522,-0.009 0.10363,-0.0202 0.15451,-0.0326 0.0509,-0.0124 0.10109,-0.0264 0.15038,-0.0419 0.0493,-0.0155 0.0978,-0.0326 0.14521,-0.0512 0.0474,-0.0185 0.0938,-0.0384 0.13901,-0.0599 0.0452,-0.0216 0.0895,-0.0447 0.1323,-0.0693 0.0427,-0.0245 0.084,-0.0506 0.12402,-0.078 0.04,-0.0275 0.0783,-0.0565 0.11524,-0.0868 0.0369,-0.0303 0.0724,-0.0619 0.10593,-0.0951 0.0505,-0.05 0.0962,-0.10224 0.13798,-0.15555 0.0418,-0.0533 0.0798,-0.10785 0.1142,-0.16174 0.0344,-0.0539 0.0653,-0.10742 0.0935,-0.15917 0.0283,-0.0517 0.054,-0.10145 0.0775,-0.14831 0.0469,-0.0937 0.0855,-0.17526 0.12093,-0.23306 0.0177,-0.0289 0.0349,-0.0519 0.0517,-0.0677 0.008,-0.008 0.0169,-0.014 0.0253,-0.0181 0.008,-0.004 0.0167,-0.006 0.0253,-0.006 z"
       inkscape:path-effect="#path-effect115-5-1-4-3"
       inkscape:original-d="m 417.8849,874.17417 a 7.1051474,7.1051474 0 0 0 -5.09633,2.17868 7.1051474,7.1051474 0 0 0 -0.17777,0.17776 7.1051474,7.1051474 0 0 0 -1.8309,4.74855 7.1051474,7.1051474 0 0 0 1.8309,4.74855 7.1051474,7.1051474 0 0 0 0.45527,0.45527 l 0.67076,-0.66766 a 0.79570299,0.79570299 0 0 1 0.25786,-0.17157 0.79570299,0.79570299 0 0 1 0.30438,-0.0605 0.79570299,0.79570299 0 0 1 0.30386,0.061 0.79570299,0.79570299 0 0 1 0.25786,0.17208 l 0.0971,0.0971 1.0232,1.02268 1.41335,1.41335 a 7.1051474,7.1051474 0 0 0 0.49041,0.0351 7.1051474,7.1051474 0 0 0 1.2299,-0.11989 l -1.32912,-1.3286 -1.96577,-1.96629 -0.61754,-0.61753 2.14664,-2.14664 a 0.79374853,0.79374853 0 0 1 0.25735,-0.17208 0.79374853,0.79374853 0 0 1 0.30386,-0.0605 0.79374853,0.79374853 0 0 1 0.30385,0.0605 0.79374853,0.79374853 0 0 1 0.25735,0.17208 l 4.25504,4.25504 a 7.1051474,7.1051474 0 0 0 0.46767,-0.46819 7.1051474,7.1051474 0 0 0 1.79628,-4.71341 7.1051474,7.1051474 0 0 0 -1.79628,-4.71961 7.1051474,7.1051474 0 0 0 -0.19172,-0.2067 7.1051474,7.1051474 0 0 0 -5.11751,-2.17868 z m 0,3.2582 c 0.009,0 0.0169,0.002 0.0253,0.006 0.008,0.004 0.0169,0.0102 0.0253,0.0181 0.0168,0.0158 0.0339,0.0388 0.0517,0.0677 0.0355,0.0578 0.0745,0.13933 0.12143,0.23306 0.0235,0.0469 0.0487,0.0966 0.077,0.14831 0.0283,0.0517 0.0596,0.10527 0.094,0.15917 0.0344,0.0539 0.0719,0.10843 0.11369,0.16174 0.0418,0.0533 0.0879,0.10555 0.13849,0.15555 0.0336,0.0332 0.069,0.0647 0.10594,0.0951 0.0369,0.0303 0.0753,0.0594 0.11524,0.0868 0.04,0.0275 0.0813,0.0535 0.12402,0.078 0.0428,0.0245 0.0871,0.0477 0.1323,0.0693 0.0452,0.0215 0.0916,0.0414 0.139,0.0599 0.0474,0.0185 0.0959,0.0357 0.14522,0.0512 0.0493,0.0155 0.0995,0.0294 0.15037,0.0419 0.0509,0.0124 0.10234,0.0233 0.15452,0.0326 0.24987,0.0444 0.46797,0.0806 0.65474,0.11058 0.18676,0.03 0.34204,0.0539 0.46612,0.0734 0.12408,0.0195 0.21722,0.0349 0.27905,0.0481 0.0309,0.007 0.0538,0.0124 0.0693,0.0181 0.0154,0.006 0.0232,0.0112 0.0232,0.0165 0,0.005 -0.008,0.0108 -0.0232,0.0165 -0.0154,0.006 -0.0383,0.0115 -0.0693,0.0181 -0.0618,0.0131 -0.15497,0.0286 -0.27905,0.0481 -0.12408,0.0195 -0.27936,0.043 -0.46612,0.0729 -0.18677,0.0299 -0.40487,0.0662 -0.65474,0.11059 -0.0522,0.009 -0.10363,0.0201 -0.15452,0.0326 -0.0509,0.0124 -0.10108,0.0264 -0.15037,0.0418 -0.0493,0.0155 -0.0978,0.0326 -0.14522,0.0512 -0.0474,0.0185 -0.0938,0.0384 -0.139,0.0599 -0.0452,0.0215 -0.0895,0.0447 -0.1323,0.0692 -0.0427,0.0245 -0.084,0.0506 -0.12402,0.078 -0.04,0.0274 -0.0783,0.0565 -0.11524,0.0868 -0.0369,0.0303 -0.0724,0.0619 -0.10594,0.0951 -0.0505,0.05 -0.0967,0.10223 -0.13849,0.15554 -0.0418,0.0533 -0.0793,0.10785 -0.11369,0.16175 -0.0344,0.0539 -0.0657,0.10742 -0.094,0.15916 -0.0283,0.0518 -0.0535,0.10145 -0.077,0.14832 -0.047,0.0937 -0.0859,0.17526 -0.12143,0.23306 -0.0178,0.0289 -0.0348,0.0519 -0.0517,0.0677 -0.008,0.008 -0.0169,0.014 -0.0253,0.0181 -0.008,0.004 -0.0167,0.006 -0.0253,0.006 -0.009,0 -0.0169,-0.002 -0.0253,-0.006 -0.008,-0.004 -0.0169,-0.0102 -0.0253,-0.0181 -0.0168,-0.0158 -0.0339,-0.0388 -0.0517,-0.0677 -0.0355,-0.0578 -0.074,-0.13934 -0.12093,-0.23306 -0.0235,-0.0469 -0.0492,-0.0966 -0.0775,-0.14832 -0.0283,-0.0517 -0.0591,-0.10526 -0.0935,-0.15916 -0.0344,-0.0539 -0.0724,-0.10844 -0.1142,-0.16175 -0.0418,-0.0533 -0.0874,-0.10555 -0.13798,-0.15554 -0.0336,-0.0332 -0.069,-0.0647 -0.10593,-0.0951 -0.0369,-0.0303 -0.0753,-0.0594 -0.11524,-0.0868 -0.04,-0.0275 -0.0813,-0.0535 -0.12402,-0.078 -0.0428,-0.0245 -0.0871,-0.0477 -0.1323,-0.0692 -0.0452,-0.0216 -0.0916,-0.0414 -0.13901,-0.0599 -0.0474,-0.0185 -0.0959,-0.0357 -0.14521,-0.0512 -0.0493,-0.0155 -0.0995,-0.0294 -0.15038,-0.0418 -0.0509,-0.0124 -0.10233,-0.0233 -0.15451,-0.0326 -0.24987,-0.0444 -0.46793,-0.0807 -0.65474,-0.11059 -0.18681,-0.0299 -0.34249,-0.0534 -0.46664,-0.0729 -0.12414,-0.0195 -0.21717,-0.035 -0.27905,-0.0481 -0.0309,-0.007 -0.0538,-0.0124 -0.0693,-0.0181 -0.0154,-0.006 -0.0232,-0.0112 -0.0232,-0.0165 0,-0.005 0.008,-0.0108 0.0232,-0.0165 0.0154,-0.006 0.0383,-0.0115 0.0693,-0.0181 0.0619,-0.0131 0.15491,-0.0285 0.27905,-0.0481 0.12415,-0.0195 0.27983,-0.0434 0.46664,-0.0734 0.18681,-0.03 0.40487,-0.0661 0.65474,-0.11058 0.0522,-0.009 0.10363,-0.0202 0.15451,-0.0326 0.0509,-0.0124 0.10109,-0.0264 0.15038,-0.0419 0.0493,-0.0155 0.0978,-0.0326 0.14521,-0.0512 0.0474,-0.0185 0.0938,-0.0384 0.13901,-0.0599 0.0452,-0.0216 0.0895,-0.0447 0.1323,-0.0693 0.0427,-0.0245 0.084,-0.0506 0.12402,-0.078 0.04,-0.0275 0.0783,-0.0565 0.11524,-0.0868 0.0369,-0.0303 0.0724,-0.0619 0.10593,-0.0951 0.0505,-0.05 0.0962,-0.10224 0.13798,-0.15555 0.0418,-0.0533 0.0798,-0.10785 0.1142,-0.16174 0.0344,-0.0539 0.0653,-0.10742 0.0935,-0.15917 0.0283,-0.0517 0.054,-0.10145 0.0775,-0.14831 0.0469,-0.0937 0.0855,-0.17526 0.12093,-0.23306 0.0177,-0.0289 0.0349,-0.0519 0.0517,-0.0677 0.008,-0.008 0.0169,-0.014 0.0253,-0.0181 0.008,-0.004 0.0167,-0.006 0.0253,-0.006 z"
       transform="matrix(6.5166198,0,0,6.5166198,223.37254,-5676.8164)" />
  </g>
</svg>
