<?xml version="1.0" encoding="UTF-8" standalone="no"?>
<!-- Created with Inkscape (http://www.inkscape.org/) -->

<svg
   width="350"
   height="350.00101"
   viewBox="0 0 92.604167 92.604433"
   version="1.1"
   id="svg1"
   inkscape:version="1.3 (0e150ed6c4, 2023-07-21)"
   sodipodi:docname="sublime_mark_negative_light_round.svg"
   xmlns:inkscape="http://www.inkscape.org/namespaces/inkscape"
   xmlns:sodipodi="http://sodipodi.sourceforge.net/DTD/sodipodi-0.dtd"
   xmlns="http://www.w3.org/2000/svg"
   xmlns:svg="http://www.w3.org/2000/svg">
  <sodipodi:namedview
     id="namedview1"
     pagecolor="#585858"
     bordercolor="#676767"
     borderopacity="1"
     inkscape:showpageshadow="0"
     inkscape:pageopacity="0"
     inkscape:pagecheckerboard="0"
     inkscape:deskcolor="#464646"
     inkscape:document-units="px"
     inkscape:zoom="1.3524163"
     inkscape:cx="168.95686"
     inkscape:cy="157.8656"
     inkscape:window-width="1920"
     inkscape:window-height="1020"
     inkscape:window-x="0"
     inkscape:window-y="32"
     inkscape:window-maximized="1"
     inkscape:current-layer="layer1">
    <inkscape:page
       x="-2.3704542e-06"
       y="1.760989e-08"
       width="92.604164"
       height="92.604431"
       id="page11"
       margin="0"
       bleed="0" />
  </sodipodi:namedview>
  <defs
     id="defs1">
    <inkscape:path-effect
       effect="fillet_chamfer"
       id="path-effect115-5-1-4-3"
       is_visible="true"
       lpeversion="1"
       nodesatellites_param="F,0,0,1,0,0,0,1 @ F,0,0,1,0,0,0,1 @ F,0,0,1,0,0,0,1 @ F,0,0,1,0,0,0,1 @ F,0,0,1,0,0,0,1 @ F,0,0,1,0,0.52916667,0,1 @ F,0,0,1,0,0,0,1 @ F,0,0,1,0,0,0,1 @ F,0,0,1,0,0,0,1 @ F,0,0,1,0,0,0,1 @ F,0,0,1,0,0,0,1 @ F,0,0,1,0,0,0,1 @ F,0,0,1,0,0,0,1 @ F,0,1,1,0,0,0,1 @ F,0,1,1,0,0,0,1 @ F,0,1,1,0,0,0,1 @ F,0,0,1,0,0,0,1 @ F,0,0,1,0,0,0,1 @ F,0,0,1,0,0,0,1 @ F,0,0,1,0,0,0,1 @ F,0,0,1,0,0,0,1 @ F,0,0,1,0,0,0,1 @ F,0,0,1,0,0,0,1 @ F,0,0,1,0,0,0,1 @ F,0,0,1,0,0.52916667,0,1 @ F,0,0,1,0,0,0,1 @ F,0,0,1,0,0,0,1 @ F,0,0,1,0,0,0,1 @ F,0,0,1,0,0,0,1 @ F,0,0,1,0,0,0,1 | F,0,0,1,0,0,0,1 @ F,0,0,1,0,0,0,1 @ F,0,0,1,0,0,0,1 @ F,0,0,1,0,0,0,1 @ F,0,0,1,0,0,0,1 @ F,0,0,1,0,0,0,1 @ F,0,0,1,0,0,0,1 @ F,0,0,1,0,0,0,1 @ F,0,0,1,0,0,0,1 @ F,0,0,1,0,0,0,1 @ F,0,0,1,0,0,0,1 @ F,0,0,1,0,0,0,1 @ F,0,0,1,0,0,0,1 @ F,0,0,1,0,0,0,1 @ F,0,0,1,0,0,0,1 @ F,0,0,1,0,0,0,1 @ F,0,0,1,0,0,0,1 @ F,0,0,1,0,0,0,1 @ F,0,0,1,0,0,0,1 @ F,0,0,1,0,0,0,1 @ F,0,0,1,0,0,0,1 @ F,0,0,1,0,0,0,1 @ F,0,0,1,0,0,0,1 @ F,0,0,1,0,0,0,1 @ F,0,0,1,0,0,0,1 @ F,0,0,1,0,0,0,1 @ F,0,0,1,0,0,0,1 @ F,0,0,1,0,0,0,1 @ F,0,0,1,0,0,0,1 @ F,0,0,1,0,0,0,1 @ F,0,0,1,0,0,0,1 @ F,0,0,1,0,0,0,1 @ F,0,0,1,0,0,0,1 @ F,0,0,1,0,0,0,1 @ F,0,0,1,0,0,0,1 @ F,0,0,1,0,0,0,1 @ F,0,0,1,0,0,0,1 @ F,0,0,1,0,0,0,1 @ F,0,0,1,0,0,0,1 @ F,0,0,1,0,0,0,1 @ F,0,0,1,0,0,0,1 @ F,0,0,1,0,0,0,1 @ F,0,0,1,0,0,0,1 @ F,0,0,1,0,0,0,1 @ F,0,0,1,0,0,0,1 @ F,0,0,1,0,0,0,1 @ F,0,0,1,0,0,0,1 @ F,0,0,1,0,0,0,1 @ F,0,0,1,0,0,0,1 @ F,0,0,1,0,0,0,1 @ F,0,0,1,0,0,0,1 @ F,0,0,1,0,0,0,1 @ F,0,0,1,0,0,0,1 @ F,0,0,1,0,0,0,1 @ F,0,0,1,0,0,0,1 @ F,0,0,1,0,0,0,1 @ F,0,0,1,0,0,0,1 @ F,0,0,1,0,0,0,1 @ F,0,0,1,0,0,0,1 @ F,0,0,1,0,0,0,1 @ F,0,0,1,0,0,0,1 @ F,0,0,1,0,0,0,1 @ F,0,0,1,0,0,0,1 @ F,0,0,1,0,0,0,1 @ F,0,0,1,0,0,0,1 @ F,0,0,1,0,0,0,1 @ F,0,0,1,0,0,0,1 @ F,0,0,1,0,0,0,1 @ F,0,0,1,0,0,0,1 @ F,0,0,1,0,0,0,1 @ F,0,0,1,0,0,0,1 @ F,0,0,1,0,0,0,1 @ F,0,0,1,0,0,0,1 @ F,0,0,1,0,0,0,1 @ F,0,0,1,0,0,0,1 @ F,0,0,1,0,0,0,1 @ F,0,0,1,0,0,0,1 @ F,0,0,1,0,0,0,1 @ F,0,0,1,0,0,0,1 @ F,0,0,1,0,0,0,1 @ F,0,0,1,0,0,0,1 @ F,0,0,1,0,0,0,1 @ F,0,0,1,0,0,0,1 @ F,0,0,1,0,0,0,1"
       radius="0"
       unit="px"
       method="auto"
       mode="F"
       chamfer_steps="1"
       flexible="false"
       use_knot_distance="true"
       apply_no_radius="true"
       apply_with_radius="true"
       only_selected="true"
       hide_knots="false" />
  </defs>
  <g
     inkscape:label="Camada 1"
     inkscape:groupmode="layer"
     id="layer1"
     transform="translate(-2900.269,-19.843588)">
    <path
       id="path77-9-8"
       style="fill:#ffffff;fill-opacity:1;stroke:none;stroke-width:1.01763;paint-order:stroke markers fill"
       d="m 2946.5695,19.841528 a 46.302013,46.302013 0 0 0 -28.5347,9.97339 46.302013,46.302013 0 0 0 -7.7943,7.79431 46.302013,46.302013 0 0 0 -9.9727,28.53473 46.302013,46.302013 0 0 0 9.9727,28.535408 46.302013,46.302013 0 0 0 3.6826,4.12955 l 7.9117,-7.87601 21.2691,21.265624 a 46.302013,46.302013 0 0 0 3.4656,0.24716 46.302013,46.302013 0 0 0 7.2451,-0.61103 l -15.7843,-15.787704 19.2465,-19.249943 21.979,21.978263 a 46.302013,46.302013 0 0 0 3.6435,-4.09385 46.302013,46.302013 0 0 0 9.9727,-28.535408 46.302013,46.302013 0 0 0 -9.9727,-28.68715 46.302013,46.302013 0 0 0 -7.6488,-7.64532 46.302013,46.302013 0 0 0 -28.681,-9.96996 z m 0,24.53356 c 0.1373,0.0824 0.2678,0.20597 0.3914,0.35701 0.1235,0.15104 0.2471,0.32954 0.3707,0.54236 0.2472,0.41879 0.4943,0.93919 0.7772,1.54335 0.2883,0.60416 0.611,1.2907 1.0003,2.02598 0.1991,0.36387 0.4119,0.74559 0.6453,1.13486 0.2334,0.39133 0.4943,0.78815 0.7772,1.19252 0.2334,0.32954 0.4668,0.64535 0.7023,0.95086 0.2403,0.30208 0.4806,0.59043 0.7312,0.86916 0.254,0.27462 0.508,0.5355 0.784,0.78403 0.2746,0.24716 0.563,0.48058 0.8657,0.6989 0.3021,0.21969 0.6248,0.41879 0.9646,0.61102 0.3433,0.18537 0.7024,0.36387 1.0896,0.52178 0.3844,0.1579 0.8005,0.30207 1.2419,0.42565 0.4394,0.12358 0.9117,0.23343 1.415,0.32954 3.4258,0.63848 5.2774,0.99892 6.3649,1.24539 0.5424,0.12357 0.898,0.21969 1.1603,0.30894 0.2608,0.0892 0.4325,0.1785 0.6178,0.28148 -0.1853,0.10298 -0.357,0.19223 -0.6178,0.28149 -0.2609,0.0892 -0.6179,0.18536 -1.1603,0.30894 -1.0875,0.24715 -2.9391,0.60416 -6.3649,1.24195 -0.5012,0.0961 -0.9735,0.20597 -1.415,0.33641 -0.4394,0.12358 -0.8547,0.26775 -1.2419,0.42565 -0.3845,0.15791 -0.7477,0.32954 -1.0896,0.51491 -0.3433,0.19223 -0.6591,0.39133 -0.9646,0.61102 -0.302,0.2197 -0.5904,0.45312 -0.8657,0.6989 -0.2746,0.24716 -0.5355,0.50804 -0.784,0.78403 -0.2541,0.27462 -0.4943,0.56297 -0.7312,0.86916 -0.2403,0.30208 -0.4737,0.61789 -0.7023,0.95086 -0.2815,0.40506 -0.5424,0.80257 -0.7772,1.19253 -0.2334,0.39133 -0.4531,0.77098 -0.6453,1.13828 -0.3914,0.73529 -0.7147,1.4184 -1.0003,2.02255 -0.2815,0.60416 -0.5287,1.13074 -0.7772,1.54678 -0.1236,0.20597 -0.2472,0.38447 -0.3707,0.5355 -0.1236,0.15104 -0.2541,0.26776 -0.3914,0.35701 -0.1373,-0.0824 -0.2677,-0.20597 -0.3913,-0.35701 -0.1236,-0.15103 -0.2471,-0.32953 -0.3707,-0.5355 -0.2472,-0.41879 -0.4943,-0.94262 -0.7799,-1.54678 -0.2884,-0.60415 -0.6042,-1.28726 -0.9976,-2.02255 -0.1991,-0.36386 -0.4119,-0.74901 -0.6453,-1.13828 -0.2335,-0.39133 -0.4943,-0.78815 -0.7765,-1.19253 -0.2334,-0.32954 -0.4669,-0.64535 -0.7023,-0.95086 -0.2403,-0.30207 -0.4806,-0.59042 -0.7312,-0.86916 -0.254,-0.27461 -0.508,-0.5355 -0.784,-0.78403 -0.2747,-0.24715 -0.563,-0.48058 -0.8658,-0.6989 -0.302,-0.21969 -0.6247,-0.41879 -0.9652,-0.61102 -0.3433,-0.18537 -0.7017,-0.357 -1.0889,-0.51491 -0.3845,-0.1579 -0.8005,-0.30207 -1.242,-0.42565 -0.4393,-0.12358 -0.9117,-0.24029 -1.4156,-0.33641 -3.4252,-0.63848 -5.2768,-0.99548 -6.3642,-1.24195 -0.5424,-0.12358 -0.898,-0.21969 -1.1603,-0.30894 -0.2609,-0.0893 -0.4325,-0.17851 -0.6179,-0.28149 0.1854,-0.10298 0.357,-0.19223 0.6179,-0.28148 0.2609,-0.0892 0.6179,-0.18537 1.1603,-0.30894 1.0874,-0.24716 2.939,-0.60416 6.3642,-1.24196 0.5012,-0.0961 0.9742,-0.20596 1.4156,-0.32954 0.4394,-0.12357 0.8548,-0.26775 1.242,-0.42565 0.3845,-0.15791 0.7476,-0.33641 1.0889,-0.52177 0.3432,-0.19224 0.659,-0.39133 0.9652,-0.61103 0.3021,-0.21969 0.5905,-0.45311 0.8658,-0.6989 0.2746,-0.24715 0.5355,-0.50804 0.784,-0.78403 0.254,-0.27461 0.4943,-0.56296 0.7312,-0.86916 0.2403,-0.30208 0.4737,-0.61788 0.7023,-0.95086 0.2815,-0.40506 0.5424,-0.80256 0.7765,-1.19252 0.2334,-0.39133 0.4462,-0.76755 0.6453,-1.13485 0.3914,-0.73529 0.712,-1.42183 0.9976,-2.02599 0.2883,-0.60415 0.5355,-1.1273 0.7799,-1.54334 0.1236,-0.20597 0.2471,-0.39133 0.3707,-0.53551 0.1236,-0.15103 0.254,-0.26775 0.3913,-0.357 z" />
  </g>
</svg>
