<?xml version="1.0" encoding="UTF-8" standalone="no"?>
<!-- Created with Inkscape (http://www.inkscape.org/) -->

<svg
   width="349.99802"
   height="350"
   viewBox="0 0 92.603642 92.604167"
   version="1.1"
   id="svg1"
   inkscape:version="1.3 (0e150ed6c4, 2023-07-21)"
   sodipodi:docname="sublime_logo.svg"
   xmlns:inkscape="http://www.inkscape.org/namespaces/inkscape"
   xmlns:sodipodi="http://sodipodi.sourceforge.net/DTD/sodipodi-0.dtd"
   xmlns="http://www.w3.org/2000/svg"
   xmlns:svg="http://www.w3.org/2000/svg">
  <sodipodi:namedview
     id="namedview1"
     pagecolor="#585858"
     bordercolor="#676767"
     borderopacity="1"
     inkscape:showpageshadow="0"
     inkscape:pageopacity="0"
     inkscape:pagecheckerboard="0"
     inkscape:deskcolor="#464646"
     inkscape:document-units="px"
     inkscape:zoom="0.059768919"
     inkscape:cx="2442.7412"
     inkscape:cy="1631.2827"
     inkscape:window-width="1920"
     inkscape:window-height="1020"
     inkscape:window-x="0"
     inkscape:window-y="32"
     inkscape:window-maximized="1"
     inkscape:current-layer="layer1">
    <inkscape:page
       x="-5.0429736e-07"
       y="-4.7619054e-08"
       width="92.603645"
       height="92.604164"
       id="page11"
       margin="0"
       bleed="0" />
  </sodipodi:namedview>
  <defs
     id="defs1" />
  <g
     inkscape:label="Camada 1"
     inkscape:groupmode="layer"
     id="layer1"
     transform="translate(-2513.0817,-19.843706)">
    <path
       id="path61-2-2-7-3-4-9-6-6-1"
       style="fill:#ffffff;fill-opacity:1;stroke:none;stroke-width:4.54409;stroke-dasharray:none;stroke-opacity:1;paint-order:stroke markers fill"
       d="m 2513.0817,19.843706 v 92.604164 l 9.8527,-9.80781 a 6.9623571,6.9623571 0 0 1 9.8346,0.009 l 9.803,9.79819 h 15.7896 l -22.6038,-22.608362 18.783,-18.782631 a 6.9452557,6.9452557 0 0 1 9.821,0 l 41.3235,41.323363 V 19.843706 Z m 46.1481,9.446441 c 1.2062,0 2.1233,4.810719 5.6611,8.310697 2.3493,2.323985 5.6802,3.853476 9.3327,4.503597 8.7455,1.554865 13.0585,1.955612 13.0585,2.332735 0,0.376247 -4.313,0.769995 -13.0585,2.32836 -3.6525,0.647496 -6.9834,2.180486 -9.3327,4.503596 -3.5379,3.499978 -4.4549,8.310698 -5.6611,8.310698 -1.2037,0 -2.1188,-4.81072 -5.6567,-8.310698 -2.3492,-2.32311 -5.6802,-3.853475 -9.3326,-4.503596 -8.7455,-1.554865 -13.0631,-1.951238 -13.0631,-2.32836 0,-0.376248 4.3176,-0.778745 13.0631,-2.332735 3.6524,-0.647496 6.9834,-2.180487 9.3326,-4.503597 3.538,-3.499978 4.453,-8.310697 5.6567,-8.310697 z" />
  </g>
</svg>
